<?xml version="1.0" encoding="UTF-8" standalone="no"?>
<!-- Created with Inkscape (http://www.inkscape.org/) -->

<svg
   xmlns:dc="http://purl.org/dc/elements/1.1/"
   xmlns:cc="http://creativecommons.org/ns#"
   xmlns:rdf="http://www.w3.org/1999/02/22-rdf-syntax-ns#"
   xmlns:svg="http://www.w3.org/2000/svg"
   xmlns="http://www.w3.org/2000/svg"
   xmlns:sodipodi="http://sodipodi.sourceforge.net/DTD/sodipodi-0.dtd"
   xmlns:inkscape="http://www.inkscape.org/namespaces/inkscape"
   width="612"
   height="378.00003"
   id="svg2"
   version="1.1"
   inkscape:version="0.48.4 r9939"
   sodipodi:docname="New document 1">
  <defs
     id="defs4" />
  <sodipodi:namedview
     id="base"
     pagecolor="#ffffff"
     bordercolor="#666666"
     borderopacity="1.0"
     inkscape:pageopacity="0.0"
     inkscape:pageshadow="2"
     inkscape:zoom="1.4142136"
     inkscape:cx="480.63315"
     inkscape:cy="223.50614"
     inkscape:document-units="px"
     inkscape:current-layer="layer1"
     showgrid="false"
     fit-margin-top="0"
     fit-margin-left="0"
     fit-margin-right="0"
     fit-margin-bottom="0"
     inkscape:window-width="1920"
     inkscape:window-height="995"
     inkscape:window-x="-4"
     inkscape:window-y="-4"
     inkscape:window-maximized="1" />
  <metadata
     id="metadata7">
    <rdf:RDF>
      <cc:Work
         rdf:about="">
        <dc:format>image/svg+xml</dc:format>
        <dc:type
           rdf:resource="http://purl.org/dc/dcmitype/StillImage" />
        <dc:title></dc:title>
      </cc:Work>
    </rdf:RDF>
  </metadata>
  <g
     inkscape:label="Layer 1"
     inkscape:groupmode="layer"
     id="layer1"
     transform="translate(-115.65326,-573.3596)">
    <path
       style="fill:#000000"
       d="m 115.65326,762.3596 0,-189 65.99999,0 66,0 0,189 0,189.00003 -66,0 -65.99999,0 0,-189.00003 z m 151.99999,0 0,-189 113.00003,0 113,0 0,189 0,189.00003 -32.5,0 -32.5,0 0,-96 c 0,-95.33336 0.014,-96.00003 2,-96.00003 1.9846,0 2,0.66667 2,86.5 l 0,86.50003 11,0 11,0 0,-105.50003 0,-105.5 -28.5,0 -28.5,0 0,-11 0,-11 17.5,0 17.5,0 0,-44.5 0,-44.5 -52.5,0 -52.5,0 0,44.5 0,44.5 17.5,0 17.5,0 0,11 0,11 -28.5,0 -28.50003,0 0,105.5 0,105.50003 11.00003,0 11,0 0,-86.50003 c 0,-85.83333 0.015,-86.5 2,-86.5 1.9861,0 2,0.66667 2,96.00003 l 0,96 -32.00003,0 -32,0 0,-189.00003 z m 247.00003,113.00003 0,-76.00003 19,0 18.99997,0 0,29.5 0,29.50003 40.49997,0 40.50004,0 0,-50.00003 0,-50 -59.50001,0 -59.49997,0 0,-92.5 0,-92.5 106.49994,0 106.50004,0 0,47 0,47 -11,0 -11,0 0,-28.5 0,-28.5 -77.00004,0 -76.99997,0 0,44.5 0,44.5 88.00001,0 88,0 0,126 0,126.00003 -106.50004,0 -106.49994,0 0,-76 z m -169,-230.50003 0,-8.5 8.5,0 8.5,0 0,8.5 0,8.5 -8.5,0 -8.5,0 0,-8.5 z m 52,0 0,-8.5 8.5,0 8.5,0 0,8.5 0,8.5 -8.5,0 -8.5,0 0,-8.5 z"
       id="path2996"
       inkscape:connector-curvature="0" />
  </g>
</svg>
